%TF.GenerationSoftware,KiCad,Pcbnew,9.0.1*%
%TF.CreationDate,2026-05-16T16:07:20+03:00*%
%TF.ProjectId,ne555-timer,6e653535-352d-4746-996d-65722e6b6963,rev?*%
%TF.SameCoordinates,Original*%
%TF.FileFunction,Legend,Top*%
%TF.FilePolarity,Positive*%
%FSLAX46Y46*%
G04 Gerber Fmt 4.6, Leading zero omitted, Abs format (unit mm)*
G04 Created by KiCad (PCBNEW 9.0.1) date 2026-05-16 16:07:20*
%MOMM*%
%LPD*%
G01*
G04 APERTURE LIST*
%ADD10C,0.150000*%
%ADD11C,0.000000*%
%ADD12C,0.120000*%
G04 APERTURE END LIST*
D10*
X128763095Y-92064819D02*
X128763095Y-92874342D01*
X128763095Y-92874342D02*
X128810714Y-92969580D01*
X128810714Y-92969580D02*
X128858333Y-93017200D01*
X128858333Y-93017200D02*
X128953571Y-93064819D01*
X128953571Y-93064819D02*
X129144047Y-93064819D01*
X129144047Y-93064819D02*
X129239285Y-93017200D01*
X129239285Y-93017200D02*
X129286904Y-92969580D01*
X129286904Y-92969580D02*
X129334523Y-92874342D01*
X129334523Y-92874342D02*
X129334523Y-92064819D01*
X130334523Y-93064819D02*
X129763095Y-93064819D01*
X130048809Y-93064819D02*
X130048809Y-92064819D01*
X130048809Y-92064819D02*
X129953571Y-92207676D01*
X129953571Y-92207676D02*
X129858333Y-92302914D01*
X129858333Y-92302914D02*
X129763095Y-92350533D01*
X135249819Y-100316666D02*
X134773628Y-100649999D01*
X135249819Y-100888094D02*
X134249819Y-100888094D01*
X134249819Y-100888094D02*
X134249819Y-100507142D01*
X134249819Y-100507142D02*
X134297438Y-100411904D01*
X134297438Y-100411904D02*
X134345057Y-100364285D01*
X134345057Y-100364285D02*
X134440295Y-100316666D01*
X134440295Y-100316666D02*
X134583152Y-100316666D01*
X134583152Y-100316666D02*
X134678390Y-100364285D01*
X134678390Y-100364285D02*
X134726009Y-100411904D01*
X134726009Y-100411904D02*
X134773628Y-100507142D01*
X134773628Y-100507142D02*
X134773628Y-100888094D01*
X134249819Y-99983332D02*
X134249819Y-99364285D01*
X134249819Y-99364285D02*
X134630771Y-99697618D01*
X134630771Y-99697618D02*
X134630771Y-99554761D01*
X134630771Y-99554761D02*
X134678390Y-99459523D01*
X134678390Y-99459523D02*
X134726009Y-99411904D01*
X134726009Y-99411904D02*
X134821247Y-99364285D01*
X134821247Y-99364285D02*
X135059342Y-99364285D01*
X135059342Y-99364285D02*
X135154580Y-99411904D01*
X135154580Y-99411904D02*
X135202200Y-99459523D01*
X135202200Y-99459523D02*
X135249819Y-99554761D01*
X135249819Y-99554761D02*
X135249819Y-99840475D01*
X135249819Y-99840475D02*
X135202200Y-99935713D01*
X135202200Y-99935713D02*
X135154580Y-99983332D01*
X120208333Y-99584819D02*
X119875000Y-99108628D01*
X119636905Y-99584819D02*
X119636905Y-98584819D01*
X119636905Y-98584819D02*
X120017857Y-98584819D01*
X120017857Y-98584819D02*
X120113095Y-98632438D01*
X120113095Y-98632438D02*
X120160714Y-98680057D01*
X120160714Y-98680057D02*
X120208333Y-98775295D01*
X120208333Y-98775295D02*
X120208333Y-98918152D01*
X120208333Y-98918152D02*
X120160714Y-99013390D01*
X120160714Y-99013390D02*
X120113095Y-99061009D01*
X120113095Y-99061009D02*
X120017857Y-99108628D01*
X120017857Y-99108628D02*
X119636905Y-99108628D01*
X120589286Y-98680057D02*
X120636905Y-98632438D01*
X120636905Y-98632438D02*
X120732143Y-98584819D01*
X120732143Y-98584819D02*
X120970238Y-98584819D01*
X120970238Y-98584819D02*
X121065476Y-98632438D01*
X121065476Y-98632438D02*
X121113095Y-98680057D01*
X121113095Y-98680057D02*
X121160714Y-98775295D01*
X121160714Y-98775295D02*
X121160714Y-98870533D01*
X121160714Y-98870533D02*
X121113095Y-99013390D01*
X121113095Y-99013390D02*
X120541667Y-99584819D01*
X120541667Y-99584819D02*
X121160714Y-99584819D01*
X139834819Y-92441666D02*
X139358628Y-92774999D01*
X139834819Y-93013094D02*
X138834819Y-93013094D01*
X138834819Y-93013094D02*
X138834819Y-92632142D01*
X138834819Y-92632142D02*
X138882438Y-92536904D01*
X138882438Y-92536904D02*
X138930057Y-92489285D01*
X138930057Y-92489285D02*
X139025295Y-92441666D01*
X139025295Y-92441666D02*
X139168152Y-92441666D01*
X139168152Y-92441666D02*
X139263390Y-92489285D01*
X139263390Y-92489285D02*
X139311009Y-92536904D01*
X139311009Y-92536904D02*
X139358628Y-92632142D01*
X139358628Y-92632142D02*
X139358628Y-93013094D01*
X139834819Y-91489285D02*
X139834819Y-92060713D01*
X139834819Y-91774999D02*
X138834819Y-91774999D01*
X138834819Y-91774999D02*
X138977676Y-91870237D01*
X138977676Y-91870237D02*
X139072914Y-91965475D01*
X139072914Y-91965475D02*
X139120533Y-92060713D01*
X132609819Y-87208333D02*
X133324104Y-87208333D01*
X133324104Y-87208333D02*
X133466961Y-87255952D01*
X133466961Y-87255952D02*
X133562200Y-87351190D01*
X133562200Y-87351190D02*
X133609819Y-87494047D01*
X133609819Y-87494047D02*
X133609819Y-87589285D01*
X133609819Y-86208333D02*
X133609819Y-86779761D01*
X133609819Y-86494047D02*
X132609819Y-86494047D01*
X132609819Y-86494047D02*
X132752676Y-86589285D01*
X132752676Y-86589285D02*
X132847914Y-86684523D01*
X132847914Y-86684523D02*
X132895533Y-86779761D01*
X121486905Y-104609819D02*
X121486905Y-103609819D01*
X121486905Y-103609819D02*
X121725000Y-103609819D01*
X121725000Y-103609819D02*
X121867857Y-103657438D01*
X121867857Y-103657438D02*
X121963095Y-103752676D01*
X121963095Y-103752676D02*
X122010714Y-103847914D01*
X122010714Y-103847914D02*
X122058333Y-104038390D01*
X122058333Y-104038390D02*
X122058333Y-104181247D01*
X122058333Y-104181247D02*
X122010714Y-104371723D01*
X122010714Y-104371723D02*
X121963095Y-104466961D01*
X121963095Y-104466961D02*
X121867857Y-104562200D01*
X121867857Y-104562200D02*
X121725000Y-104609819D01*
X121725000Y-104609819D02*
X121486905Y-104609819D01*
X123010714Y-104609819D02*
X122439286Y-104609819D01*
X122725000Y-104609819D02*
X122725000Y-103609819D01*
X122725000Y-103609819D02*
X122629762Y-103752676D01*
X122629762Y-103752676D02*
X122534524Y-103847914D01*
X122534524Y-103847914D02*
X122439286Y-103895533D01*
X141259580Y-87066666D02*
X141307200Y-87114285D01*
X141307200Y-87114285D02*
X141354819Y-87257142D01*
X141354819Y-87257142D02*
X141354819Y-87352380D01*
X141354819Y-87352380D02*
X141307200Y-87495237D01*
X141307200Y-87495237D02*
X141211961Y-87590475D01*
X141211961Y-87590475D02*
X141116723Y-87638094D01*
X141116723Y-87638094D02*
X140926247Y-87685713D01*
X140926247Y-87685713D02*
X140783390Y-87685713D01*
X140783390Y-87685713D02*
X140592914Y-87638094D01*
X140592914Y-87638094D02*
X140497676Y-87590475D01*
X140497676Y-87590475D02*
X140402438Y-87495237D01*
X140402438Y-87495237D02*
X140354819Y-87352380D01*
X140354819Y-87352380D02*
X140354819Y-87257142D01*
X140354819Y-87257142D02*
X140402438Y-87114285D01*
X140402438Y-87114285D02*
X140450057Y-87066666D01*
X140354819Y-86733332D02*
X140354819Y-86114285D01*
X140354819Y-86114285D02*
X140735771Y-86447618D01*
X140735771Y-86447618D02*
X140735771Y-86304761D01*
X140735771Y-86304761D02*
X140783390Y-86209523D01*
X140783390Y-86209523D02*
X140831009Y-86161904D01*
X140831009Y-86161904D02*
X140926247Y-86114285D01*
X140926247Y-86114285D02*
X141164342Y-86114285D01*
X141164342Y-86114285D02*
X141259580Y-86161904D01*
X141259580Y-86161904D02*
X141307200Y-86209523D01*
X141307200Y-86209523D02*
X141354819Y-86304761D01*
X141354819Y-86304761D02*
X141354819Y-86590475D01*
X141354819Y-86590475D02*
X141307200Y-86685713D01*
X141307200Y-86685713D02*
X141259580Y-86733332D01*
X126959580Y-102241666D02*
X127007200Y-102289285D01*
X127007200Y-102289285D02*
X127054819Y-102432142D01*
X127054819Y-102432142D02*
X127054819Y-102527380D01*
X127054819Y-102527380D02*
X127007200Y-102670237D01*
X127007200Y-102670237D02*
X126911961Y-102765475D01*
X126911961Y-102765475D02*
X126816723Y-102813094D01*
X126816723Y-102813094D02*
X126626247Y-102860713D01*
X126626247Y-102860713D02*
X126483390Y-102860713D01*
X126483390Y-102860713D02*
X126292914Y-102813094D01*
X126292914Y-102813094D02*
X126197676Y-102765475D01*
X126197676Y-102765475D02*
X126102438Y-102670237D01*
X126102438Y-102670237D02*
X126054819Y-102527380D01*
X126054819Y-102527380D02*
X126054819Y-102432142D01*
X126054819Y-102432142D02*
X126102438Y-102289285D01*
X126102438Y-102289285D02*
X126150057Y-102241666D01*
X126150057Y-101860713D02*
X126102438Y-101813094D01*
X126102438Y-101813094D02*
X126054819Y-101717856D01*
X126054819Y-101717856D02*
X126054819Y-101479761D01*
X126054819Y-101479761D02*
X126102438Y-101384523D01*
X126102438Y-101384523D02*
X126150057Y-101336904D01*
X126150057Y-101336904D02*
X126245295Y-101289285D01*
X126245295Y-101289285D02*
X126340533Y-101289285D01*
X126340533Y-101289285D02*
X126483390Y-101336904D01*
X126483390Y-101336904D02*
X127054819Y-101908332D01*
X127054819Y-101908332D02*
X127054819Y-101289285D01*
X140933333Y-95884580D02*
X140885714Y-95932200D01*
X140885714Y-95932200D02*
X140742857Y-95979819D01*
X140742857Y-95979819D02*
X140647619Y-95979819D01*
X140647619Y-95979819D02*
X140504762Y-95932200D01*
X140504762Y-95932200D02*
X140409524Y-95836961D01*
X140409524Y-95836961D02*
X140361905Y-95741723D01*
X140361905Y-95741723D02*
X140314286Y-95551247D01*
X140314286Y-95551247D02*
X140314286Y-95408390D01*
X140314286Y-95408390D02*
X140361905Y-95217914D01*
X140361905Y-95217914D02*
X140409524Y-95122676D01*
X140409524Y-95122676D02*
X140504762Y-95027438D01*
X140504762Y-95027438D02*
X140647619Y-94979819D01*
X140647619Y-94979819D02*
X140742857Y-94979819D01*
X140742857Y-94979819D02*
X140885714Y-95027438D01*
X140885714Y-95027438D02*
X140933333Y-95075057D01*
X141885714Y-95979819D02*
X141314286Y-95979819D01*
X141600000Y-95979819D02*
X141600000Y-94979819D01*
X141600000Y-94979819D02*
X141504762Y-95122676D01*
X141504762Y-95122676D02*
X141409524Y-95217914D01*
X141409524Y-95217914D02*
X141314286Y-95265533D01*
D11*
%TO.C,G\u002A\u002A\u002A*%
G36*
X120388228Y-87445263D02*
G01*
X120371999Y-87461978D01*
X120359758Y-87480224D01*
X120351439Y-87500158D01*
X120346980Y-87521933D01*
X120346316Y-87545708D01*
X120346413Y-87547506D01*
X120348315Y-87564188D01*
X120352223Y-87578974D01*
X120358666Y-87593448D01*
X120365966Y-87605809D01*
X120379559Y-87623143D01*
X120395857Y-87637274D01*
X120414446Y-87647978D01*
X120434914Y-87655028D01*
X120456848Y-87658200D01*
X120462237Y-87658358D01*
X120482763Y-87656950D01*
X120502276Y-87652594D01*
X120519825Y-87645572D01*
X120532619Y-87637614D01*
X120538642Y-87633536D01*
X120541798Y-87632671D01*
X120542084Y-87635019D01*
X120539608Y-87640379D01*
X120524818Y-87663199D01*
X120507918Y-87682480D01*
X120489059Y-87698094D01*
X120468391Y-87709908D01*
X120453274Y-87715738D01*
X120442686Y-87719442D01*
X120436355Y-87722518D01*
X120434274Y-87724946D01*
X120435182Y-87727991D01*
X120437671Y-87734063D01*
X120441381Y-87742339D01*
X120445954Y-87751994D01*
X120446953Y-87754042D01*
X120452551Y-87765530D01*
X120458280Y-87777385D01*
X120463447Y-87788172D01*
X120467195Y-87796098D01*
X120471183Y-87804581D01*
X120476348Y-87815500D01*
X120482001Y-87827406D01*
X120487111Y-87838126D01*
X120492845Y-87850204D01*
X120499575Y-87864497D01*
X120506500Y-87879299D01*
X120512821Y-87892907D01*
X120513402Y-87894164D01*
X120518807Y-87905784D01*
X120524125Y-87917069D01*
X120528846Y-87926949D01*
X120532465Y-87934358D01*
X120533388Y-87936192D01*
X120536849Y-87943205D01*
X120541390Y-87952730D01*
X120546335Y-87963339D01*
X120549690Y-87970676D01*
X120553905Y-87979859D01*
X120557590Y-87987656D01*
X120560320Y-87993187D01*
X120561610Y-87995498D01*
X120563000Y-87998090D01*
X120565835Y-88003946D01*
X120569799Y-88012392D01*
X120574578Y-88022757D01*
X120579334Y-88033215D01*
X120585049Y-88045842D01*
X120590668Y-88058221D01*
X120595739Y-88069361D01*
X120599814Y-88078273D01*
X120601875Y-88082751D01*
X120605357Y-88090508D01*
X120608232Y-88097338D01*
X120609866Y-88101732D01*
X120612088Y-88105435D01*
X120615554Y-88105485D01*
X120620455Y-88101799D01*
X120626986Y-88094292D01*
X120627049Y-88094211D01*
X120648364Y-88067281D01*
X120670151Y-88040344D01*
X120687085Y-88019765D01*
X120695303Y-88009794D01*
X120702986Y-88000384D01*
X120709522Y-87992291D01*
X120714300Y-87986270D01*
X120716148Y-87983860D01*
X120719877Y-87979011D01*
X120725530Y-87971872D01*
X120732285Y-87963473D01*
X120738130Y-87956296D01*
X120746627Y-87945885D01*
X120756116Y-87934197D01*
X120765136Y-87923030D01*
X120769416Y-87917704D01*
X120776455Y-87908968D01*
X120783373Y-87900458D01*
X120789211Y-87893352D01*
X120792046Y-87889955D01*
X120797950Y-87882747D01*
X120804362Y-87874599D01*
X120807133Y-87870959D01*
X120812523Y-87864254D01*
X120815978Y-87861188D01*
X120817668Y-87861638D01*
X120817910Y-87863389D01*
X120817969Y-87864201D01*
X120818202Y-87865483D01*
X120818696Y-87867510D01*
X120819536Y-87870557D01*
X120820807Y-87874900D01*
X120822593Y-87880813D01*
X120824982Y-87888571D01*
X120828057Y-87898451D01*
X120831905Y-87910727D01*
X120836610Y-87925674D01*
X120842259Y-87943567D01*
X120848936Y-87964683D01*
X120856726Y-87989295D01*
X120865716Y-88017679D01*
X120867895Y-88024558D01*
X120871201Y-88035082D01*
X120875408Y-88048597D01*
X120880164Y-88063969D01*
X120885118Y-88080066D01*
X120889920Y-88095752D01*
X120890556Y-88097838D01*
X120894698Y-88111290D01*
X120898490Y-88123352D01*
X120901733Y-88133413D01*
X120904229Y-88140864D01*
X120905780Y-88145091D01*
X120906132Y-88145799D01*
X120906939Y-88146063D01*
X120908572Y-88145555D01*
X120911382Y-88144038D01*
X120915716Y-88141275D01*
X120921926Y-88137032D01*
X120930362Y-88131071D01*
X120941372Y-88123155D01*
X120955307Y-88113049D01*
X120964469Y-88106381D01*
X120975342Y-88098482D01*
X120986431Y-88090464D01*
X120996608Y-88083138D01*
X121004747Y-88077318D01*
X121006497Y-88076076D01*
X121015033Y-88070005D01*
X121025403Y-88062592D01*
X121035952Y-88055022D01*
X121040981Y-88051399D01*
X121054053Y-88041989D01*
X121064542Y-88034489D01*
X121073345Y-88028264D01*
X121080854Y-88023023D01*
X121085431Y-88019755D01*
X121091921Y-88015009D01*
X121097855Y-88010607D01*
X121105945Y-88004619D01*
X121115516Y-87997650D01*
X121127095Y-87989321D01*
X121141214Y-87979251D01*
X121156289Y-87968553D01*
X121165263Y-87962180D01*
X121174114Y-87955869D01*
X121181495Y-87950581D01*
X121184308Y-87948552D01*
X121190878Y-87943829D01*
X121199303Y-87937817D01*
X121207914Y-87931708D01*
X121209093Y-87930875D01*
X121217519Y-87924812D01*
X121225908Y-87918591D01*
X121232628Y-87913426D01*
X121233395Y-87912814D01*
X121238610Y-87908904D01*
X121242360Y-87906617D01*
X121243554Y-87906353D01*
X121243509Y-87908766D01*
X121242369Y-87913924D01*
X121241214Y-87917972D01*
X121239417Y-87924007D01*
X121236788Y-87933079D01*
X121233649Y-87944071D01*
X121230320Y-87955867D01*
X121229492Y-87958822D01*
X121225888Y-87971593D01*
X121222118Y-87984754D01*
X121218604Y-87996849D01*
X121215765Y-88006418D01*
X121215493Y-88007316D01*
X121212162Y-88018580D01*
X121208478Y-88031482D01*
X121205164Y-88043482D01*
X121204747Y-88045033D01*
X121196909Y-88073795D01*
X121188941Y-88101832D01*
X121180173Y-88131500D01*
X121179926Y-88132322D01*
X121176123Y-88145058D01*
X121172184Y-88158387D01*
X121168568Y-88170752D01*
X121165731Y-88180593D01*
X121165668Y-88180816D01*
X121162837Y-88190746D01*
X121160087Y-88200348D01*
X121157883Y-88207996D01*
X121157326Y-88209912D01*
X121155469Y-88216368D01*
X121152891Y-88225435D01*
X121150031Y-88235573D01*
X121148765Y-88240086D01*
X121145914Y-88250202D01*
X121143139Y-88259944D01*
X121140879Y-88267770D01*
X121140146Y-88270260D01*
X121136260Y-88283401D01*
X121132152Y-88297416D01*
X121128093Y-88311372D01*
X121124352Y-88324338D01*
X121121198Y-88335381D01*
X121118902Y-88343570D01*
X121118322Y-88345695D01*
X121116375Y-88352657D01*
X121113567Y-88362348D01*
X121110305Y-88373376D01*
X121107610Y-88382335D01*
X121102957Y-88397734D01*
X121099382Y-88409753D01*
X121096676Y-88419127D01*
X121094633Y-88426589D01*
X121093048Y-88432876D01*
X121091712Y-88438722D01*
X121091609Y-88439195D01*
X121089541Y-88447557D01*
X121086818Y-88457109D01*
X121085332Y-88461826D01*
X121083211Y-88468358D01*
X121080972Y-88475501D01*
X121078461Y-88483782D01*
X121075521Y-88493731D01*
X121071999Y-88505878D01*
X121067738Y-88520751D01*
X121062584Y-88538879D01*
X121058393Y-88553680D01*
X121053973Y-88569252D01*
X121049496Y-88584935D01*
X121045241Y-88599755D01*
X121041488Y-88612743D01*
X121038516Y-88622926D01*
X121037641Y-88625882D01*
X121034334Y-88637176D01*
X121030995Y-88648854D01*
X121028128Y-88659151D01*
X121026929Y-88663599D01*
X121024459Y-88672789D01*
X121021350Y-88684119D01*
X121018155Y-88695585D01*
X121017146Y-88699161D01*
X121014593Y-88708185D01*
X121012449Y-88715776D01*
X121011009Y-88720890D01*
X121010606Y-88722331D01*
X121009773Y-88722606D01*
X121007346Y-88722863D01*
X121003200Y-88723103D01*
X120997209Y-88723325D01*
X120989247Y-88723531D01*
X120979190Y-88723721D01*
X120966910Y-88723895D01*
X120952284Y-88724055D01*
X120935184Y-88724200D01*
X120915486Y-88724331D01*
X120893064Y-88724449D01*
X120867792Y-88724554D01*
X120839545Y-88724647D01*
X120808197Y-88724728D01*
X120773622Y-88724798D01*
X120735695Y-88724858D01*
X120694291Y-88724907D01*
X120649283Y-88724947D01*
X120600546Y-88724978D01*
X120547955Y-88725001D01*
X120491384Y-88725016D01*
X120430706Y-88725024D01*
X120390281Y-88725025D01*
X120338883Y-88725019D01*
X120288608Y-88725003D01*
X120239626Y-88724976D01*
X120192107Y-88724940D01*
X120146223Y-88724894D01*
X120102143Y-88724838D01*
X120060039Y-88724775D01*
X120020080Y-88724703D01*
X119982437Y-88724623D01*
X119947281Y-88724536D01*
X119914783Y-88724443D01*
X119885112Y-88724343D01*
X119858439Y-88724237D01*
X119834935Y-88724126D01*
X119814770Y-88724009D01*
X119798115Y-88723888D01*
X119785140Y-88723763D01*
X119776015Y-88723634D01*
X119770912Y-88723502D01*
X119769824Y-88723408D01*
X119768831Y-88720534D01*
X119767252Y-88714968D01*
X119766219Y-88711016D01*
X119763856Y-88702387D01*
X119760959Y-88692712D01*
X119759573Y-88688385D01*
X119757381Y-88681378D01*
X119754489Y-88671620D01*
X119751308Y-88660524D01*
X119748865Y-88651745D01*
X119745278Y-88638834D01*
X119741081Y-88623983D01*
X119736895Y-88609385D01*
X119734483Y-88601096D01*
X119731181Y-88589741D01*
X119727139Y-88575692D01*
X119722775Y-88560406D01*
X119718505Y-88545342D01*
X119716604Y-88538593D01*
X119712153Y-88522931D01*
X119707024Y-88505183D01*
X119701765Y-88487229D01*
X119696926Y-88470949D01*
X119695552Y-88466391D01*
X119691538Y-88452993D01*
X119687544Y-88439439D01*
X119683924Y-88426937D01*
X119681027Y-88416693D01*
X119679882Y-88412509D01*
X119677236Y-88402913D01*
X119673795Y-88390835D01*
X119670033Y-88377913D01*
X119666861Y-88367248D01*
X119662949Y-88354014D01*
X119658517Y-88338644D01*
X119654145Y-88323169D01*
X119650846Y-88311211D01*
X119647698Y-88299787D01*
X119644676Y-88289104D01*
X119642086Y-88280232D01*
X119640238Y-88274243D01*
X119639988Y-88273493D01*
X119637366Y-88265386D01*
X119633847Y-88253811D01*
X119629634Y-88239466D01*
X119624935Y-88223052D01*
X119620645Y-88207757D01*
X119614696Y-88186508D01*
X119609645Y-88168818D01*
X119605314Y-88154074D01*
X119602264Y-88144037D01*
X119599699Y-88135441D01*
X119597350Y-88127066D01*
X119596162Y-88122485D01*
X119594763Y-88117146D01*
X119592455Y-88108797D01*
X119591406Y-88105097D01*
X119678408Y-88105097D01*
X119678630Y-88107416D01*
X119679917Y-88113143D01*
X119682072Y-88121568D01*
X119684895Y-88131978D01*
X119688189Y-88143660D01*
X119691758Y-88155903D01*
X119695401Y-88167994D01*
X119698923Y-88179221D01*
X119699482Y-88180951D01*
X119702883Y-88191834D01*
X119706747Y-88204829D01*
X119710467Y-88217870D01*
X119712162Y-88224057D01*
X119715152Y-88234926D01*
X119718959Y-88248410D01*
X119723152Y-88262995D01*
X119727299Y-88277171D01*
X119728446Y-88281037D01*
X119732657Y-88295379D01*
X119737186Y-88311128D01*
X119741545Y-88326565D01*
X119745244Y-88339972D01*
X119745916Y-88342462D01*
X119749221Y-88354444D01*
X119753384Y-88369071D01*
X119757982Y-88384874D01*
X119762589Y-88400383D01*
X119764955Y-88408198D01*
X119769549Y-88423443D01*
X119774526Y-88440275D01*
X119779406Y-88457053D01*
X119783710Y-88472137D01*
X119785417Y-88478245D01*
X119788777Y-88490298D01*
X119791991Y-88501681D01*
X119794769Y-88511375D01*
X119796821Y-88518364D01*
X119797404Y-88520273D01*
X119804016Y-88541544D01*
X119809997Y-88561085D01*
X119815168Y-88578302D01*
X119819352Y-88592602D01*
X119822333Y-88603251D01*
X119824702Y-88611685D01*
X119826865Y-88618748D01*
X119828437Y-88623205D01*
X119828709Y-88623797D01*
X119829203Y-88624142D01*
X119830411Y-88624462D01*
X119832485Y-88624759D01*
X119835576Y-88625033D01*
X119839835Y-88625284D01*
X119845413Y-88625515D01*
X119852461Y-88625725D01*
X119861130Y-88625915D01*
X119871573Y-88626087D01*
X119883939Y-88626242D01*
X119898381Y-88626379D01*
X119915050Y-88626501D01*
X119934096Y-88626607D01*
X119955671Y-88626699D01*
X119979926Y-88626778D01*
X120007012Y-88626844D01*
X120037081Y-88626898D01*
X120070284Y-88626942D01*
X120106772Y-88626976D01*
X120146696Y-88627001D01*
X120190208Y-88627017D01*
X120237459Y-88627027D01*
X120288599Y-88627030D01*
X120343781Y-88627027D01*
X120389811Y-88627022D01*
X120455767Y-88627004D01*
X120517692Y-88626971D01*
X120575566Y-88626921D01*
X120629372Y-88626856D01*
X120679091Y-88626775D01*
X120724706Y-88626679D01*
X120766197Y-88626566D01*
X120803548Y-88626439D01*
X120836738Y-88626295D01*
X120865751Y-88626137D01*
X120890568Y-88625963D01*
X120911171Y-88625773D01*
X120927541Y-88625569D01*
X120939660Y-88625350D01*
X120947509Y-88625115D01*
X120951072Y-88624866D01*
X120951296Y-88624796D01*
X120952667Y-88621968D01*
X120954820Y-88615873D01*
X120957458Y-88607420D01*
X120960185Y-88597863D01*
X120963470Y-88586064D01*
X120966967Y-88573859D01*
X120970188Y-88562937D01*
X120972031Y-88556913D01*
X120974763Y-88547917D01*
X120978119Y-88536444D01*
X120981610Y-88524184D01*
X120983892Y-88515963D01*
X120987202Y-88503999D01*
X120990725Y-88491466D01*
X120993964Y-88480124D01*
X120995766Y-88473934D01*
X121002202Y-88451983D01*
X121008911Y-88428868D01*
X121015379Y-88406364D01*
X121020983Y-88386646D01*
X121024097Y-88375669D01*
X121027253Y-88364654D01*
X121029987Y-88355220D01*
X121031202Y-88351083D01*
X121033327Y-88343846D01*
X121036241Y-88333812D01*
X121039555Y-88322331D01*
X121042746Y-88311211D01*
X121046168Y-88299313D01*
X121049660Y-88287281D01*
X121052794Y-88276582D01*
X121054993Y-88269183D01*
X121057594Y-88260367D01*
X121060820Y-88249181D01*
X121064159Y-88237415D01*
X121065823Y-88231465D01*
X121069214Y-88219369D01*
X121072960Y-88206163D01*
X121076450Y-88193997D01*
X121077774Y-88189437D01*
X121081036Y-88178188D01*
X121084807Y-88165078D01*
X121088429Y-88152395D01*
X121089539Y-88148487D01*
X121092517Y-88138107D01*
X121095465Y-88128057D01*
X121097939Y-88119843D01*
X121098923Y-88116696D01*
X121100692Y-88110024D01*
X121100551Y-88106847D01*
X121099758Y-88106459D01*
X121097035Y-88107685D01*
X121091845Y-88110959D01*
X121085118Y-88115679D01*
X121082080Y-88117931D01*
X121064030Y-88131509D01*
X121048902Y-88142859D01*
X121036184Y-88152361D01*
X121025366Y-88160395D01*
X121015938Y-88167341D01*
X121007389Y-88173579D01*
X121005637Y-88174850D01*
X120992310Y-88184516D01*
X120981577Y-88192332D01*
X120972536Y-88198967D01*
X120964284Y-88205089D01*
X120955917Y-88211367D01*
X120946533Y-88218469D01*
X120939359Y-88223922D01*
X120929968Y-88231043D01*
X120921461Y-88237451D01*
X120914589Y-88242586D01*
X120910100Y-88245884D01*
X120909157Y-88246552D01*
X120905643Y-88249094D01*
X120899566Y-88253616D01*
X120891783Y-88259474D01*
X120883274Y-88265935D01*
X120874498Y-88272614D01*
X120866438Y-88278727D01*
X120860010Y-88283581D01*
X120856229Y-88286410D01*
X120840980Y-88297689D01*
X120825369Y-88309293D01*
X120810757Y-88320206D01*
X120800443Y-88327953D01*
X120789407Y-88336260D01*
X120776864Y-88345683D01*
X120763330Y-88355836D01*
X120749322Y-88366332D01*
X120735356Y-88376785D01*
X120721950Y-88386807D01*
X120709621Y-88396013D01*
X120698884Y-88404016D01*
X120690259Y-88410430D01*
X120684260Y-88414867D01*
X120682174Y-88416394D01*
X120676611Y-88420310D01*
X120673379Y-88421913D01*
X120671329Y-88421438D01*
X120669312Y-88419118D01*
X120669242Y-88419024D01*
X120667160Y-88415468D01*
X120663801Y-88408850D01*
X120659602Y-88400062D01*
X120654999Y-88389998D01*
X120654224Y-88388262D01*
X120649168Y-88376892D01*
X120644090Y-88365475D01*
X120639581Y-88355342D01*
X120636245Y-88347850D01*
X120632819Y-88340326D01*
X120628132Y-88330252D01*
X120622805Y-88318957D01*
X120617561Y-88307978D01*
X120612530Y-88297469D01*
X120607827Y-88287558D01*
X120603957Y-88279311D01*
X120601420Y-88273793D01*
X120601287Y-88273493D01*
X120598758Y-88267946D01*
X120594945Y-88259745D01*
X120590423Y-88250127D01*
X120586986Y-88242877D01*
X120582815Y-88234025D01*
X120579432Y-88226681D01*
X120577213Y-88221666D01*
X120576518Y-88219830D01*
X120575627Y-88217646D01*
X120573150Y-88212212D01*
X120569380Y-88204155D01*
X120564612Y-88194104D01*
X120561164Y-88186911D01*
X120651953Y-88186911D01*
X120652831Y-88189159D01*
X120655283Y-88194697D01*
X120659031Y-88202920D01*
X120663800Y-88213223D01*
X120669314Y-88225003D01*
X120670539Y-88227604D01*
X120676687Y-88240659D01*
X120682648Y-88253341D01*
X120688011Y-88264775D01*
X120692364Y-88274085D01*
X120695298Y-88280393D01*
X120695346Y-88280498D01*
X120698597Y-88287208D01*
X120701223Y-88292034D01*
X120702674Y-88293966D01*
X120702698Y-88293968D01*
X120704778Y-88292777D01*
X120709630Y-88289527D01*
X120716546Y-88284705D01*
X120724818Y-88278796D01*
X120725445Y-88278343D01*
X120735903Y-88270807D01*
X120747098Y-88262780D01*
X120757480Y-88255371D01*
X120763627Y-88251011D01*
X120772142Y-88244989D01*
X120780439Y-88239113D01*
X120787114Y-88234378D01*
X120788813Y-88233170D01*
X120795378Y-88228501D01*
X120803419Y-88222784D01*
X120809288Y-88218612D01*
X120816425Y-88213399D01*
X120822980Y-88208374D01*
X120826854Y-88205201D01*
X120832566Y-88200214D01*
X120825125Y-88176506D01*
X120818675Y-88155932D01*
X120813393Y-88139039D01*
X120809147Y-88125395D01*
X120805808Y-88114571D01*
X120803243Y-88106136D01*
X120801321Y-88099659D01*
X120799911Y-88094712D01*
X120798881Y-88090863D01*
X120798467Y-88089217D01*
X120796789Y-88083134D01*
X120794116Y-88074290D01*
X120790854Y-88064000D01*
X120788253Y-88056089D01*
X120780418Y-88032659D01*
X120774917Y-88038987D01*
X120772559Y-88041724D01*
X120769580Y-88045235D01*
X120765683Y-88049880D01*
X120760566Y-88056018D01*
X120753932Y-88064009D01*
X120745481Y-88074214D01*
X120734914Y-88086992D01*
X120721931Y-88102702D01*
X120720608Y-88104304D01*
X120708853Y-88118524D01*
X120699342Y-88130004D01*
X120691581Y-88139336D01*
X120685073Y-88147107D01*
X120679325Y-88153909D01*
X120673843Y-88160330D01*
X120668130Y-88166961D01*
X120665423Y-88170090D01*
X120659620Y-88176914D01*
X120655072Y-88182500D01*
X120652399Y-88186072D01*
X120651953Y-88186911D01*
X120561164Y-88186911D01*
X120559276Y-88182971D01*
X120553817Y-88171581D01*
X120549069Y-88161573D01*
X120545327Y-88153575D01*
X120542884Y-88148216D01*
X120542033Y-88146130D01*
X120541150Y-88143919D01*
X120538723Y-88138554D01*
X120535090Y-88130762D01*
X120530586Y-88121270D01*
X120528873Y-88117695D01*
X120523653Y-88106687D01*
X120518729Y-88096054D01*
X120514605Y-88086899D01*
X120511782Y-88080322D01*
X120511459Y-88079518D01*
X120507926Y-88071249D01*
X120503549Y-88061905D01*
X120501025Y-88056887D01*
X120497174Y-88049268D01*
X120492413Y-88039510D01*
X120487610Y-88029404D01*
X120486356Y-88026713D01*
X120482703Y-88018855D01*
X120477680Y-88008087D01*
X120471749Y-87995399D01*
X120465375Y-87981782D01*
X120459156Y-87968521D01*
X120453201Y-87955823D01*
X120447620Y-87943906D01*
X120442767Y-87933526D01*
X120438995Y-87925440D01*
X120436658Y-87920405D01*
X120436484Y-87920027D01*
X120434129Y-87914967D01*
X120430377Y-87906982D01*
X120425683Y-87897040D01*
X120420503Y-87886108D01*
X120418700Y-87882310D01*
X120413146Y-87870452D01*
X120407662Y-87858450D01*
X120402811Y-87847551D01*
X120399153Y-87839005D01*
X120398558Y-87837548D01*
X120394858Y-87829311D01*
X120391693Y-87824096D01*
X120389402Y-87822459D01*
X120389395Y-87822461D01*
X120387231Y-87824597D01*
X120384109Y-87829716D01*
X120380645Y-87836788D01*
X120380059Y-87838126D01*
X120376572Y-87845976D01*
X120371799Y-87856374D01*
X120366353Y-87867998D01*
X120360848Y-87879526D01*
X120360545Y-87880154D01*
X120355513Y-87890697D01*
X120350951Y-87900500D01*
X120347307Y-87908584D01*
X120345027Y-87913973D01*
X120344775Y-87914639D01*
X120342916Y-87919129D01*
X120339560Y-87926646D01*
X120335096Y-87936343D01*
X120329912Y-87947369D01*
X120326502Y-87954512D01*
X120318014Y-87972199D01*
X120311226Y-87986382D01*
X120305962Y-87997437D01*
X120302045Y-88005742D01*
X120299300Y-88011673D01*
X120297550Y-88015607D01*
X120296620Y-88017921D01*
X120296332Y-88018990D01*
X120296331Y-88019020D01*
X120295439Y-88021308D01*
X120292965Y-88026815D01*
X120289214Y-88034882D01*
X120284492Y-88044851D01*
X120280167Y-88053866D01*
X120274889Y-88064849D01*
X120270333Y-88074414D01*
X120266803Y-88081917D01*
X120264602Y-88086713D01*
X120264002Y-88088172D01*
X120263125Y-88090301D01*
X120260721Y-88095584D01*
X120257129Y-88103286D01*
X120252688Y-88112677D01*
X120251344Y-88115497D01*
X120245310Y-88128175D01*
X120238622Y-88142281D01*
X120231590Y-88157157D01*
X120224523Y-88172145D01*
X120217731Y-88186588D01*
X120211522Y-88199827D01*
X120206207Y-88211205D01*
X120202095Y-88220064D01*
X120199495Y-88225746D01*
X120199346Y-88226077D01*
X120196457Y-88232469D01*
X120191990Y-88242260D01*
X120186178Y-88254941D01*
X120179257Y-88270000D01*
X120171460Y-88286927D01*
X120163022Y-88305212D01*
X120158757Y-88314444D01*
X120152878Y-88327303D01*
X120146531Y-88341421D01*
X120140491Y-88355060D01*
X120135667Y-88366170D01*
X120129397Y-88380494D01*
X120123395Y-88393578D01*
X120117920Y-88404903D01*
X120113237Y-88413950D01*
X120109605Y-88420198D01*
X120107286Y-88423130D01*
X120106906Y-88423285D01*
X120104151Y-88421807D01*
X120102168Y-88419826D01*
X120098957Y-88416841D01*
X120093411Y-88412466D01*
X120087356Y-88408089D01*
X120079714Y-88402641D01*
X120070505Y-88395859D01*
X120061544Y-88389082D01*
X120060328Y-88388145D01*
X120053051Y-88382581D01*
X120043322Y-88375233D01*
X120031754Y-88366558D01*
X120018964Y-88357010D01*
X120005563Y-88347045D01*
X119992167Y-88337119D01*
X119979390Y-88327686D01*
X119967846Y-88319203D01*
X119958148Y-88312125D01*
X119950912Y-88306906D01*
X119947995Y-88304849D01*
X119939783Y-88298954D01*
X119930841Y-88292237D01*
X119926159Y-88288580D01*
X119920330Y-88284056D01*
X119912029Y-88277780D01*
X119902279Y-88270519D01*
X119892107Y-88263042D01*
X119890182Y-88261639D01*
X119880141Y-88254308D01*
X119870405Y-88247157D01*
X119861966Y-88240918D01*
X119855816Y-88236321D01*
X119854903Y-88235629D01*
X119847781Y-88230229D01*
X119838119Y-88222933D01*
X119826830Y-88214427D01*
X119814825Y-88205399D01*
X119807951Y-88200237D01*
X119944738Y-88200237D01*
X119979903Y-88225477D01*
X119991371Y-88233721D01*
X120002290Y-88241592D01*
X120011929Y-88248562D01*
X120019559Y-88254103D01*
X120024448Y-88257686D01*
X120024595Y-88257795D01*
X120040586Y-88269642D01*
X120053306Y-88278997D01*
X120062916Y-88285974D01*
X120069576Y-88290689D01*
X120073447Y-88293258D01*
X120074612Y-88293846D01*
X120076921Y-88292480D01*
X120077980Y-88291274D01*
X120079678Y-88288262D01*
X120082656Y-88282279D01*
X120086442Y-88274291D01*
X120089284Y-88268105D01*
X120094191Y-88257353D01*
X120099403Y-88246034D01*
X120104066Y-88235999D01*
X120105688Y-88232543D01*
X120112367Y-88218363D01*
X120117391Y-88207547D01*
X120120935Y-88199554D01*
X120123174Y-88193845D01*
X120124283Y-88189881D01*
X120124437Y-88187122D01*
X120123811Y-88185028D01*
X120122581Y-88183060D01*
X120122002Y-88182248D01*
X120117379Y-88176585D01*
X120113052Y-88172195D01*
X120109084Y-88168167D01*
X120103816Y-88162182D01*
X120099651Y-88157108D01*
X120093506Y-88149533D01*
X120086276Y-88140865D01*
X120080815Y-88134478D01*
X120068383Y-88120067D01*
X120055601Y-88105091D01*
X120043147Y-88090356D01*
X120031700Y-88076668D01*
X120021939Y-88064832D01*
X120016370Y-88057952D01*
X120010051Y-88050210D01*
X120004255Y-88043389D01*
X119999801Y-88038438D01*
X119998102Y-88036750D01*
X119995659Y-88034791D01*
X119994018Y-88034726D01*
X119992622Y-88037219D01*
X119990914Y-88042936D01*
X119989971Y-88046449D01*
X119987179Y-88056482D01*
X119983256Y-88069947D01*
X119978404Y-88086176D01*
X119972826Y-88104502D01*
X119966723Y-88124258D01*
X119960297Y-88144776D01*
X119958102Y-88151720D01*
X119954387Y-88163638D01*
X119951060Y-88174673D01*
X119948384Y-88183922D01*
X119946622Y-88190486D01*
X119946128Y-88192682D01*
X119944738Y-88200237D01*
X119807951Y-88200237D01*
X119803018Y-88196533D01*
X119792319Y-88188518D01*
X119790918Y-88187470D01*
X119784791Y-88182906D01*
X119776088Y-88176448D01*
X119765704Y-88168757D01*
X119754532Y-88160497D01*
X119746734Y-88154740D01*
X119734992Y-88146053D01*
X119722890Y-88137062D01*
X119711494Y-88128560D01*
X119701868Y-88121341D01*
X119697381Y-88117953D01*
X119689880Y-88112401D01*
X119683723Y-88108098D01*
X119679652Y-88105549D01*
X119678408Y-88105097D01*
X119591406Y-88105097D01*
X119589553Y-88098562D01*
X119586374Y-88087564D01*
X119586227Y-88087061D01*
X119582007Y-88072583D01*
X119577697Y-88057723D01*
X119573535Y-88043306D01*
X119569759Y-88030159D01*
X119566605Y-88019107D01*
X119564313Y-88010977D01*
X119563598Y-88008394D01*
X119562322Y-88003827D01*
X119560157Y-87996187D01*
X119557406Y-87986541D01*
X119554405Y-87976064D01*
X119548631Y-87955870D01*
X119544024Y-87939550D01*
X119540514Y-87926845D01*
X119538033Y-87917499D01*
X119536512Y-87911256D01*
X119535883Y-87907859D01*
X119535931Y-87907040D01*
X119538005Y-87907908D01*
X119543258Y-87911179D01*
X119551419Y-87916669D01*
X119562221Y-87924193D01*
X119575394Y-87933568D01*
X119588614Y-87943114D01*
X119603327Y-87953784D01*
X119619052Y-87965159D01*
X119635198Y-87976813D01*
X119651173Y-87988321D01*
X119666387Y-87999259D01*
X119680249Y-88009200D01*
X119692166Y-88017720D01*
X119701547Y-88024393D01*
X119705784Y-88027384D01*
X119714104Y-88033261D01*
X119721642Y-88038649D01*
X119727347Y-88042791D01*
X119729492Y-88044396D01*
X119734845Y-88048430D01*
X119742603Y-88054170D01*
X119751748Y-88060876D01*
X119761268Y-88067809D01*
X119770145Y-88074228D01*
X119777365Y-88079394D01*
X119781181Y-88082069D01*
X119787237Y-88086297D01*
X119794765Y-88091649D01*
X119799765Y-88095250D01*
X119805588Y-88099472D01*
X119813905Y-88105503D01*
X119823721Y-88112622D01*
X119834040Y-88120107D01*
X119836859Y-88122152D01*
X119846101Y-88128930D01*
X119854082Y-88134922D01*
X119860152Y-88139631D01*
X119863663Y-88142557D01*
X119864239Y-88143166D01*
X119867066Y-88145416D01*
X119870046Y-88143511D01*
X119873044Y-88137595D01*
X119874905Y-88131783D01*
X119876603Y-88125925D01*
X119879365Y-88116711D01*
X119882960Y-88104899D01*
X119887158Y-88091243D01*
X119891727Y-88076502D01*
X119894821Y-88066586D01*
X119899681Y-88051006D01*
X119904486Y-88035523D01*
X119908965Y-88021016D01*
X119912847Y-88008365D01*
X119915860Y-87998449D01*
X119917078Y-87994384D01*
X119920692Y-87982480D01*
X119924846Y-87969220D01*
X119928769Y-87957052D01*
X119929609Y-87954512D01*
X119932278Y-87946349D01*
X119935782Y-87935431D01*
X119939809Y-87922745D01*
X119944049Y-87909282D01*
X119948192Y-87896030D01*
X119951927Y-87883979D01*
X119954944Y-87874119D01*
X119956838Y-87867761D01*
X119958390Y-87864130D01*
X119960492Y-87863442D01*
X119963686Y-87865927D01*
X119968511Y-87871814D01*
X119969518Y-87873150D01*
X119973077Y-87877840D01*
X119977293Y-87883254D01*
X119982495Y-87889799D01*
X119989014Y-87897885D01*
X119997179Y-87907919D01*
X120007320Y-87920310D01*
X120019768Y-87935466D01*
X120024766Y-87941543D01*
X120033392Y-87952053D01*
X120042009Y-87962592D01*
X120049825Y-87972193D01*
X120056052Y-87979886D01*
X120058173Y-87982527D01*
X120063109Y-87988668D01*
X120070084Y-87997300D01*
X120078412Y-88007578D01*
X120087407Y-88018653D01*
X120094812Y-88027753D01*
X120103245Y-88038133D01*
X120111001Y-88047737D01*
X120117564Y-88055918D01*
X120122415Y-88062030D01*
X120124986Y-88065360D01*
X120130127Y-88072157D01*
X120136278Y-88080008D01*
X120142863Y-88088212D01*
X120149305Y-88096068D01*
X120155028Y-88102876D01*
X120159454Y-88107936D01*
X120162009Y-88110547D01*
X120162356Y-88110753D01*
X120163274Y-88110291D01*
X120164557Y-88108555D01*
X120166488Y-88104986D01*
X120169351Y-88099025D01*
X120173432Y-88090114D01*
X120177714Y-88080596D01*
X120182378Y-88070298D01*
X120187979Y-88058090D01*
X120193604Y-88045956D01*
X120196053Y-88040723D01*
X120201004Y-88030150D01*
X120207002Y-88017286D01*
X120213291Y-88003754D01*
X120219116Y-87991177D01*
X120219128Y-87991151D01*
X120224085Y-87980485D01*
X120228683Y-87970708D01*
X120232484Y-87962743D01*
X120235049Y-87957514D01*
X120235486Y-87956667D01*
X120238332Y-87951202D01*
X120240445Y-87947021D01*
X120240471Y-87946968D01*
X120242680Y-87942366D01*
X120246289Y-87934783D01*
X120250863Y-87925136D01*
X120255968Y-87914345D01*
X120261168Y-87903329D01*
X120266030Y-87893006D01*
X120270039Y-87884465D01*
X120274191Y-87875643D01*
X120279580Y-87864252D01*
X120285582Y-87851613D01*
X120291571Y-87839044D01*
X120293039Y-87835971D01*
X120298554Y-87824401D01*
X120303886Y-87813159D01*
X120308538Y-87803300D01*
X120312009Y-87795878D01*
X120312903Y-87793943D01*
X120316266Y-87786705D01*
X120320763Y-87777138D01*
X120325664Y-87766795D01*
X120328135Y-87761614D01*
X120336124Y-87744745D01*
X120342190Y-87731570D01*
X120346394Y-87721951D01*
X120348793Y-87715753D01*
X120349447Y-87712841D01*
X120349355Y-87712621D01*
X120346987Y-87711018D01*
X120342489Y-87708384D01*
X120341948Y-87708082D01*
X120335846Y-87704691D01*
X120328655Y-87700693D01*
X120326798Y-87699661D01*
X120314078Y-87690682D01*
X120301538Y-87678355D01*
X120289882Y-87663608D01*
X120279816Y-87647372D01*
X120272043Y-87630575D01*
X120270001Y-87624753D01*
X120264323Y-87600316D01*
X120262817Y-87576026D01*
X120265390Y-87552271D01*
X120271949Y-87529439D01*
X120282404Y-87507917D01*
X120296660Y-87488092D01*
X120304672Y-87479447D01*
X120318264Y-87467226D01*
X120332285Y-87457009D01*
X120337813Y-87453676D01*
X120346131Y-87449273D01*
X120354047Y-87445793D01*
X120362667Y-87442873D01*
X120373095Y-87440150D01*
X120386438Y-87437262D01*
X120389945Y-87436554D01*
X120400581Y-87434427D01*
X120388228Y-87445263D01*
G37*
D12*
%TO.C,U1*%
X126825000Y-93545000D02*
X126585000Y-93215000D01*
X127065000Y-93215000D01*
X126825000Y-93545000D01*
G36*
X126825000Y-93545000D02*
G01*
X126585000Y-93215000D01*
X127065000Y-93215000D01*
X126825000Y-93545000D01*
G37*
X129525000Y-98570000D02*
X131475000Y-98570000D01*
X129525000Y-98570000D02*
X127575000Y-98570000D01*
X129525000Y-93450000D02*
X131475000Y-93450000D01*
X129525000Y-93450000D02*
X127575000Y-93450000D01*
%TO.C,R3*%
X137535000Y-100877064D02*
X137535000Y-99422936D01*
X135715000Y-100877064D02*
X135715000Y-99422936D01*
%TO.C,R2*%
X121102064Y-96390000D02*
X119647936Y-96390000D01*
X121102064Y-98210000D02*
X119647936Y-98210000D01*
%TO.C,R1*%
X136640000Y-91547936D02*
X136640000Y-93002064D01*
X138460000Y-91547936D02*
X138460000Y-93002064D01*
%TO.C,J1*%
X129505000Y-88255000D02*
X126855000Y-88255000D01*
X126855000Y-85495000D02*
X126855000Y-88255000D01*
X129505000Y-85495000D02*
X129505000Y-88255000D01*
X129505000Y-85495000D02*
X126855000Y-85495000D01*
X130775000Y-85495000D02*
X132155000Y-85495000D01*
X132155000Y-85495000D02*
X132155000Y-86875000D01*
%TO.C,D1*%
X120625000Y-103460000D02*
X124510000Y-103460000D01*
X124510000Y-101190000D02*
X120625000Y-101190000D01*
X124510000Y-103460000D02*
X124510000Y-101190000D01*
%TO.C,C3*%
X136888748Y-87785000D02*
X138311252Y-87785000D01*
X136888748Y-85965000D02*
X138311252Y-85965000D01*
%TO.C,C2*%
X129360000Y-102786252D02*
X129360000Y-101363748D01*
X127540000Y-102786252D02*
X127540000Y-101363748D01*
%TO.C,C1*%
X140388748Y-98285000D02*
X141811252Y-98285000D01*
X140388748Y-96465000D02*
X141811252Y-96465000D01*
%TD*%
M02*
